<?xml version="1.0" encoding="utf-8"?>
<!-- Generator: Adobe Illustrator 21.0.2, SVG Export Plug-In . SVG Version: 6.00 Build 0)  -->
<!DOCTYPE svg PUBLIC "-//W3C//DTD SVG 1.1//EN" "http://www.w3.org/Graphics/SVG/1.1/DTD/svg11.dtd">
<svg version="1.1" id="Layer_1" xmlns="http://www.w3.org/2000/svg" xmlns:xlink="http://www.w3.org/1999/xlink" x="0px" y="0px"
	 viewBox="0 0 16 16" style="enable-background:new 0 0 16 16;" xml:space="preserve">
<style type="text/css">
	.st0{fill-rule:evenodd;clip-rule:evenodd;}
</style>
<g id="interface_-_arrow_left">
	<g>
		<path class="st0" d="M15,8C15,8,15,8,15,8c0-0.1,0-0.3-0.1-0.4c0,0,0,0-0.1,0l-3.9-4c-0.2-0.2-0.5-0.2-0.7,0
			c-0.2,0.2-0.2,0.5,0,0.7l3.2,3.2H1.5C1.2,7.5,1,7.7,1,8c0,0.3,0.2,0.5,0.5,0.5h11.8l-3.2,3.2c-0.2,0.2-0.2,0.5,0,0.7
			c0.2,0.2,0.5,0.2,0.7,0l3.9-4c0,0,0,0,0.1,0C14.9,8.3,15,8.1,15,8C15,8,15,8,15,8z"/>
	</g>
</g>
</svg>
