<?xml version="1.0" encoding="utf-8"?>
<!-- Generator: Adobe Illustrator 21.0.2, SVG Export Plug-In . SVG Version: 6.00 Build 0)  -->
<!DOCTYPE svg PUBLIC "-//W3C//DTD SVG 1.1//EN" "http://www.w3.org/Graphics/SVG/1.1/DTD/svg11.dtd">
<svg version="1.1" id="Layer_1" xmlns="http://www.w3.org/2000/svg" xmlns:xlink="http://www.w3.org/1999/xlink" x="0px" y="0px"
	 viewBox="0 0 16 16" style="enable-background:new 0 0 16 16;" xml:space="preserve">
<style type="text/css">
	.st0{fill-rule:evenodd;clip-rule:evenodd;}
</style>
<g id="layout_-_grid">
	<g>
		<path class="st0" d="M0,16h4.5v-4.5H0V16z M0.6,12.2h3.2v3.2H0.6V12.2z M0,10.2h4.5V5.8H0V10.2z M0.6,6.4h3.2v3.2H0.6V6.4z M0,4.5
			h4.5V0H0V4.5z M0.6,0.6h3.2v3.2H0.6V0.6z M11.5,0v4.5H16V0H11.5z M15.4,3.8h-3.2V0.6h3.2V3.8z M11.5,10.2H16V5.8h-4.5V10.2z
			 M12.2,6.4h3.2v3.2h-3.2V6.4z M5.8,16h4.5v-4.5H5.8V16z M6.4,12.2h3.2v3.2H6.4V12.2z M11.5,16H16v-4.5h-4.5V16z M12.2,12.2h3.2
			v3.2h-3.2V12.2z M5.8,10.2h4.5V5.8H5.8V10.2z M6.4,6.4h3.2v3.2H6.4V6.4z M5.8,4.5h4.5V0H5.8V4.5z M6.4,0.6h3.2v3.2H6.4V0.6z"/>
	</g>
</g>
</svg>
