<?xml version="1.0" encoding="utf-8"?>
<!-- Generator: Adobe Illustrator 21.0.2, SVG Export Plug-In . SVG Version: 6.00 Build 0)  -->
<!DOCTYPE svg PUBLIC "-//W3C//DTD SVG 1.1//EN" "http://www.w3.org/Graphics/SVG/1.1/DTD/svg11.dtd">
<svg version="1.1" id="Layer_1" xmlns="http://www.w3.org/2000/svg" xmlns:xlink="http://www.w3.org/1999/xlink" x="0px" y="0px"
	 viewBox="0 0 16 16" style="enable-background:new 0 0 16 16;" xml:space="preserve">
<style type="text/css">
	.st0{fill-rule:evenodd;clip-rule:evenodd;}
</style>
<g id="user_-_male_group">
	<g>
		<path class="st0" d="M7.9,10.6c1-1,1.6-2.6,1.6-4.2C9.5,4,8.9,2,6,2C3.1,2,2.5,4,2.5,6.4c0,1.6,0.6,3.3,1.6,4.2
			c-1,0.3-3.1,0.8-3.4,1.1c-0.7,0.6-1,2.1-0.3,3c0,0,0.4,0.3,5.7,0.3c5.3,0,5.6-0.3,5.6-0.3c0.7-0.9,0.3-2.4-0.3-3
			C11,11.4,8.9,10.9,7.9,10.6z M10.5,14l-4.5,0c0,0-4.4,0-4.4,0c-0.9-0.3-0.4-1.6,0.2-1.9c0.5-0.2,2.2-0.7,3.1-1l0.1-0.4v-0.7
			C4,9.3,3.5,7.8,3.5,6.4C3.5,4.5,3.9,3,6,3c2.1,0,2.5,1.5,2.5,3.4c0,1.4-0.5,2.9-1.4,3.6v0.7l0.1,0.5c1,0.3,2.8,0.7,3.2,0.9
			C11.1,12.4,11.3,13.7,10.5,14z M15.3,10.2C15,9.9,13,9.4,12,9.2c1-0.9,1.5-2.5,1.5-4C13.5,2.9,12.9,1,10,1C9.1,1,8.4,1.2,7.9,1.5
			C8.6,1.6,9.2,1.8,9.6,2C9.7,2,9.8,2,10,2c2.1,0,2.5,1.4,2.5,3.2c0,1.3-0.5,2.7-1.4,3.4v0.7l0.1,0.5c1,0.3,2.8,0.7,3.2,0.9
			c0.6,0.3,0.8,1.6,0,1.9l-1.5,0c0.1,0.3,0.1,0.6,0,1c2.5-0.1,2.7-0.3,2.7-0.3C16.3,12.3,16,10.8,15.3,10.2z"/>
	</g>
</g>
</svg>
