<?xml version="1.0" encoding="utf-8"?>
<!-- Generator: Adobe Illustrator 21.1.0, SVG Export Plug-In . SVG Version: 6.00 Build 0)  -->
<!DOCTYPE svg PUBLIC "-//W3C//DTD SVG 1.1//EN" "http://www.w3.org/Graphics/SVG/1.1/DTD/svg11.dtd">
<svg version="1.1" id="Layer_1" xmlns="http://www.w3.org/2000/svg" xmlns:xlink="http://www.w3.org/1999/xlink" x="0px" y="0px"
	 viewBox="0 0 16 16" style="enable-background:new 0 0 16 16;" xml:space="preserve">
<style type="text/css">
	.st0{fill-rule:evenodd;clip-rule:evenodd;}
</style>
<g id="layout_-_left_sidebar_half_content_2_">
	<g>
		<path class="st0" d="M14,0H2C0.9,0,0,0.9,0,2v12c0,1.1,0.9,2,2,2h12c1.1,0,2-0.9,2-2V2C16,0.9,15.1,0,14,0z M4,15H2
			c-0.6,0-1-0.4-1-1V5h3V15z M15,14c0,0.6-0.4,1-1,1H5v-5h10V14z M15,9H5V5h10V9z M15,4H1V2c0-0.6,0.4-1,1-1h12c0.6,0,1,0.4,1,1V4z"
			/>
	</g>
</g>
</svg>
