<?xml version="1.0" encoding="utf-8"?>
<!-- Generator: Adobe Illustrator 21.0.2, SVG Export Plug-In . SVG Version: 6.00 Build 0)  -->
<!DOCTYPE svg PUBLIC "-//W3C//DTD SVG 1.1//EN" "http://www.w3.org/Graphics/SVG/1.1/DTD/svg11.dtd">
<svg version="1.1" id="Layer_1" xmlns="http://www.w3.org/2000/svg" xmlns:xlink="http://www.w3.org/1999/xlink" x="0px" y="0px"
	 viewBox="0 0 16 16" style="enable-background:new 0 0 16 16;" xml:space="preserve">
<style type="text/css">
	.st0{fill-rule:evenodd;clip-rule:evenodd;}
</style>
<g id="document_-_file">
	<g>
		<path class="st0" d="M14.3,4l-3.8-3.8V0H2C1.7,0,1.5,0.2,1.5,0.5v15C1.5,15.8,1.7,16,2,16h12c0.3,0,0.5-0.2,0.5-0.5V4H14.3z
			 M10.5,1.8L12.7,4h-2.2V1.8z M13.5,14.5c0,0.3-0.2,0.5-0.5,0.5H3c-0.3,0-0.5-0.2-0.5-0.5v-13C2.5,1.2,2.7,1,3,1h6.5v4h4V14.5z
			 M4.5,8.5C4.5,8.8,4.7,9,5,9h6c0.3,0,0.5-0.2,0.5-0.5C11.5,8.2,11.3,8,11,8H5C4.7,8,4.5,8.2,4.5,8.5z M11,11H5
			c-0.3,0-0.5,0.2-0.5,0.5C4.5,11.8,4.7,12,5,12h6c0.3,0,0.5-0.2,0.5-0.5C11.5,11.2,11.3,11,11,11z"/>
	</g>
</g>
</svg>
