<?xml version="1.0" encoding="utf-8"?>
<!-- Generator: Adobe Illustrator 21.0.2, SVG Export Plug-In . SVG Version: 6.00 Build 0)  -->
<!DOCTYPE svg PUBLIC "-//W3C//DTD SVG 1.1//EN" "http://www.w3.org/Graphics/SVG/1.1/DTD/svg11.dtd">
<svg version="1.1" id="Layer_1" xmlns="http://www.w3.org/2000/svg" xmlns:xlink="http://www.w3.org/1999/xlink" x="0px" y="0px"
	 viewBox="0 0 16 16" style="enable-background:new 0 0 16 16;" xml:space="preserve">
<style type="text/css">
	.st0{fill-rule:evenodd;clip-rule:evenodd;}
</style>
<g>
	<g>
		<path class="st0" d="M15.9,15.2l-4.4-4.4c1-1.1,1.6-2.6,1.6-4.2C13,2.9,10.1,0,6.5,0C2.9,0,0,2.9,0,6.5C0,10.1,2.9,13,6.5,13
			c1.6,0,3.1-0.6,4.2-1.6l4.4,4.4c0.2,0.2,0.5,0.2,0.7,0C16,15.7,16,15.4,15.9,15.2z M6.5,12C3.5,12,1,9.5,1,6.5C1,3.5,3.5,1,6.5,1
			c3,0,5.5,2.5,5.5,5.5C12,9.5,9.5,12,6.5,12z"/>
	</g>
</g>
</svg>
