<?xml version="1.0" encoding="utf-8"?>
<!-- Generator: Adobe Illustrator 21.0.2, SVG Export Plug-In . SVG Version: 6.00 Build 0)  -->
<!DOCTYPE svg PUBLIC "-//W3C//DTD SVG 1.1//EN" "http://www.w3.org/Graphics/SVG/1.1/DTD/svg11.dtd">
<svg version="1.1" id="Layer_1" xmlns="http://www.w3.org/2000/svg" xmlns:xlink="http://www.w3.org/1999/xlink" x="0px" y="0px"
	 viewBox="0 0 16 16" style="enable-background:new 0 0 16 16;" xml:space="preserve">
<style type="text/css">
	.st0{fill-rule:evenodd;clip-rule:evenodd;}
</style>
<g id="setting_-_gear_2_">
	<g>
		<path class="st0" d="M8,6C6.9,6,6,6.9,6,8c0,1.1,0.9,2,2,2c1.1,0,2-0.9,2-2C10,6.9,9.1,6,8,6z M9,9H7V7h1c0,0,0,0,0,0s0,0,0,0h1V9
			z M15.1,9.8L13,8.5c0-0.2,0-0.4,0-0.5c0-0.2,0-0.4,0-0.5l2.1-1.2c0.5-0.3,0.6-1,0.2-1.6l-0.8-1.3c-0.3-0.6-1-0.9-1.5-0.6L10.9,4
			c-0.3-0.2-0.6-0.4-0.9-0.5V1c0-0.6-0.6-1-1.3-1H7.2C6.5,0,6,0.4,6,1v2.4C5.7,3.6,5.3,3.8,5.1,4L2.9,2.8c-0.5-0.3-1.1,0-1.5,0.6
			L0.7,4.7C0.3,5.3,0.4,6,0.9,6.2L3,7.5C3,7.6,3,7.8,3,8c0,0.2,0,0.4,0,0.5L0.9,9.8c-0.5,0.3-0.6,1-0.2,1.6l0.8,1.3
			c0.3,0.6,1,0.9,1.5,0.6L5.1,12c0.3,0.2,0.6,0.4,0.9,0.5V15c0,0.6,0.6,1,1.3,1h1.5c0.7,0,1.3-0.4,1.3-1v-2.4
			c0.3-0.1,0.6-0.3,0.9-0.5l2.1,1.2c0.5,0.3,1.1,0,1.5-0.6l0.8-1.3C15.7,10.7,15.5,10,15.1,9.8z M14.2,11.3l-0.2,0.4
			c-0.2,0.4-0.6,0.5-0.8,0.4l-2.3-1.3c-0.5,0.5-1.1,0.9-1.9,1.1v2.6C9,14.8,8.7,15,8.2,15H7.8C7.3,15,7,14.8,7,14.5v-2.6
			c-0.7-0.2-1.4-0.6-1.9-1.1l-2.3,1.3c-0.2,0.1-0.6,0-0.8-0.4l-0.2-0.4c-0.2-0.4-0.2-0.8,0.1-0.9l2.3-1.3C4.1,8.7,4,8.4,4,8
			c0-0.4,0.1-0.7,0.2-1.1L1.9,5.6C1.6,5.5,1.6,5.1,1.8,4.7l0.2-0.4c0.2-0.4,0.6-0.5,0.8-0.4l2.3,1.3C5.7,4.7,6.3,4.3,7,4.1V1.5
			C7,1.2,7.3,1,7.8,1h0.5C8.7,1,9,1.2,9,1.5v2.6c0.7,0.2,1.4,0.6,1.9,1.1l2.3-1.3c0.2-0.1,0.6,0,0.8,0.4l0.2,0.4
			c0.2,0.4,0.2,0.8-0.1,0.9l-2.3,1.3C11.9,7.3,12,7.6,12,8c0,0.4-0.1,0.7-0.2,1.1l2.3,1.3C14.4,10.5,14.4,10.9,14.2,11.3z"/>
	</g>
</g>
</svg>
