<?xml version="1.0" encoding="utf-8"?>
<!-- Generator: Adobe Illustrator 21.0.2, SVG Export Plug-In . SVG Version: 6.00 Build 0)  -->
<!DOCTYPE svg PUBLIC "-//W3C//DTD SVG 1.1//EN" "http://www.w3.org/Graphics/SVG/1.1/DTD/svg11.dtd">
<svg version="1.1" id="Layer_1" xmlns="http://www.w3.org/2000/svg" xmlns:xlink="http://www.w3.org/1999/xlink" x="0px" y="0px"
	 viewBox="0 0 16 16" style="enable-background:new 0 0 16 16;" xml:space="preserve">
<style type="text/css">
	.st0{fill-rule:evenodd;clip-rule:evenodd;}
</style>
<g id="document_-_list">
	<g>
		<path class="st0" d="M1.6,1.8H0.5C0.2,1.8,0,2.1,0,2.4v1.1C0,3.8,0.2,4,0.5,4h1.1c0.3,0,0.5-0.2,0.5-0.5V2.4
			C2.2,2.1,1.9,1.8,1.6,1.8z M1.6,6.9H0.5C0.2,6.9,0,7.2,0,7.5v1.1c0,0.3,0.2,0.5,0.5,0.5h1.1c0.3,0,0.5-0.2,0.5-0.5V7.5
			C2.2,7.2,1.9,6.9,1.6,6.9z M1.6,12H0.5C0.2,12,0,12.2,0,12.5v1.1c0,0.3,0.2,0.5,0.5,0.5h1.1c0.3,0,0.5-0.2,0.5-0.5v-1.1
			C2.2,12.2,1.9,12,1.6,12z M4,3.3h11.6c0.2,0,0.4-0.2,0.4-0.4c0-0.2-0.2-0.4-0.4-0.4H4c-0.2,0-0.4,0.2-0.4,0.4
			C3.6,3.1,3.8,3.3,4,3.3z M15.6,7.6H4C3.8,7.6,3.6,7.8,3.6,8c0,0.2,0.2,0.4,0.4,0.4h11.6C15.8,8.4,16,8.2,16,8
			C16,7.8,15.8,7.6,15.6,7.6z M15.6,12.7H4c-0.2,0-0.4,0.2-0.4,0.4c0,0.2,0.2,0.4,0.4,0.4h11.6c0.2,0,0.4-0.2,0.4-0.4
			C16,12.9,15.8,12.7,15.6,12.7z"/>
	</g>
</g>
</svg>
