<?xml version="1.0" encoding="utf-8"?>
<!-- Generator: Adobe Illustrator 21.0.2, SVG Export Plug-In . SVG Version: 6.00 Build 0)  -->
<!DOCTYPE svg PUBLIC "-//W3C//DTD SVG 1.1//EN" "http://www.w3.org/Graphics/SVG/1.1/DTD/svg11.dtd">
<svg version="1.1" id="Layer_1" xmlns="http://www.w3.org/2000/svg" xmlns:xlink="http://www.w3.org/1999/xlink" x="0px" y="0px"
	 viewBox="0 0 16 16" style="enable-background:new 0 0 16 16;" xml:space="preserve">
<style type="text/css">
	.st0{fill-rule:evenodd;clip-rule:evenodd;}
</style>
<g id="media_-_video_1_">
	<g>
		<path class="st0" d="M15.5,4L12,6.2V5c0-1.1-0.9-2-2-2H2C0.9,3,0,3.9,0,5v6c0,1.1,0.9,2,2,2h8c1.1,0,2-0.9,2-2V9.8l3.5,2.2
			c0.3,0,0.5-0.2,0.5-0.5v-7C16,4.2,15.8,4,15.5,4z M11,11c0,0.6-0.4,1-1,1H2c-0.6,0-1-0.4-1-1V5c0-0.6,0.4-1,1-1h8c0.6,0,1,0.4,1,1
			V11z M15,10.5L12,9V7l3-1.5V10.5z"/>
	</g>
</g>
</svg>
