<?xml version="1.0" encoding="utf-8"?>
<!-- Generator: Adobe Illustrator 21.0.2, SVG Export Plug-In . SVG Version: 6.00 Build 0)  -->
<!DOCTYPE svg PUBLIC "-//W3C//DTD SVG 1.1//EN" "http://www.w3.org/Graphics/SVG/1.1/DTD/svg11.dtd">
<svg version="1.1" id="Layer_1" xmlns="http://www.w3.org/2000/svg" xmlns:xlink="http://www.w3.org/1999/xlink" x="0px" y="0px"
	 viewBox="0 0 26 34" style="enable-background:new 0 0 26 34;" xml:space="preserve">
<style type="text/css">
	.st0{fill:#FFFFFF;}
</style>
<g>
	<g>
		<path class="st0" d="M26,27.7c0,1-0.2,1.9-0.5,2.7c-0.4,0.7-0.9,1.4-1.6,2c-0.7,0.5-1.5,1-2.5,1.2c-1,0.3-2,0.4-3.2,0.4
			c-0.7,0-1.3-0.1-1.9-0.1c-0.6-0.1-1.2-0.2-1.6-0.3c-0.5-0.1-0.8-0.3-1.2-0.5c-0.3-0.1-0.5-0.3-0.6-0.3c-0.1-0.1-0.1-0.2-0.2-0.3
			c-0.1-0.1-0.1-0.2-0.1-0.3c-0.1-0.1-0.1-0.3-0.1-0.5c0-0.2,0-0.5,0-0.7c0-0.5,0.1-0.8,0.1-1c0.1-0.2,0.2-0.3,0.3-0.3
			c0.1,0,0.3,0.1,0.5,0.2c0.3,0.1,0.5,0.3,1,0.5c0.4,0.1,0.9,0.3,1.4,0.5c0.5,0.1,1.2,0.2,1.8,0.2c0.5,0,1.1-0.1,1.5-0.2
			c0.4-0.1,0.8-0.3,1.1-0.5c0.3-0.3,0.5-0.5,0.7-0.9s0.2-0.7,0.2-1.2c0-0.5-0.1-0.9-0.3-1.2s-0.5-0.7-0.8-1s-0.8-0.5-1.4-0.6
			c-0.5-0.1-1.2-0.2-1.9-0.2H15c-0.1,0-0.3,0-0.3-0.1c-0.1-0.1-0.2-0.1-0.2-0.2c-0.1-0.1-0.1-0.3-0.1-0.5c0-0.2-0.1-0.5-0.1-0.8
			c0-0.3,0-0.5,0.1-0.7c0-0.2,0.1-0.3,0.1-0.4c0.1-0.1,0.1-0.2,0.2-0.2c0.1,0,0.2-0.1,0.3-0.1h1.8c0.6,0,1.2-0.1,1.6-0.2
			c0.5-0.1,0.9-0.3,1.2-0.6c0.3-0.3,0.5-0.5,0.8-1c0.1-0.3,0.3-0.7,0.3-1.2c0-0.3-0.1-0.7-0.2-1s-0.3-0.5-0.5-0.8
			c-0.2-0.2-0.5-0.4-0.9-0.5c-0.3-0.1-0.8-0.2-1.2-0.2c-0.5,0-1,0.1-1.5,0.3c-0.5,0.1-0.9,0.3-1.3,0.5c-0.4,0.2-0.7,0.3-1,0.5
			c-0.3,0.1-0.5,0.3-0.6,0.3c-0.1,0-0.1,0-0.2-0.1C13.1,18.1,13,18,13,18c0-0.3,0-0.4-0.1-0.6c0-0.2,0-0.5,0-0.7c0-0.3,0-0.5,0-0.6
			c0-0.2,0-0.3,0.1-0.4c0-0.1,0.1-0.2,0.1-0.3c0.1-0.1,0.1-0.2,0.2-0.3c0.1-0.1,0.3-0.3,0.6-0.4c0.3-0.2,0.8-0.4,1.2-0.5
			c0.5-0.2,1-0.3,1.7-0.5c0.6-0.1,1.3-0.2,2.1-0.2c1,0,1.9,0.1,2.6,0.3c0.8,0.2,1.4,0.5,1.9,1c0.5,0.4,0.9,1,1.2,1.6
			c0.3,0.6,0.4,1.4,0.4,2.1c0,0.6-0.1,1.2-0.2,1.7c-0.1,0.5-0.4,1-0.7,1.4c-0.3,0.4-0.7,0.7-1.2,1c-0.5,0.3-1,0.5-1.6,0.7v-0.1
			c0.7,0.1,1.4,0.3,1.9,0.5c0.5,0.3,1,0.6,1.4,1c0.4,0.4,0.7,0.9,0.9,1.4C25.9,26.6,26,27.2,26,27.7z"/>
	</g>
	<g>
		<path class="st0" d="M19.1,9.9c0,0.4,0,0.7-0.1,1c-0.1,0.3-0.1,0.5-0.2,0.6c-0.1,0.1-0.2,0.3-0.3,0.3c-0.1,0.1-0.2,0.1-0.3,0.1
			h-6.5v6.9c0,0.1-0.1,0.3-0.1,0.3c-0.1,0.1-0.2,0.2-0.3,0.3c-0.1,0.1-0.4,0.1-0.7,0.2c-0.3,0.1-0.6,0.1-1,0.1s-0.8,0-1-0.1
			c-0.3-0.1-0.5-0.1-0.7-0.2c-0.1-0.1-0.3-0.1-0.3-0.3c-0.1-0.1-0.1-0.2-0.1-0.3v-6.9H0.9c-0.1,0-0.2,0-0.3-0.1
			c-0.1-0.1-0.2-0.2-0.3-0.3s-0.1-0.3-0.2-0.6C0,10.5,0,10.2,0,9.9c0-0.3,0-0.7,0.1-1c0.1-0.3,0.1-0.5,0.2-0.6C0.3,8.2,0.4,8,0.6,8
			c0.1-0.1,0.2-0.1,0.3-0.1h6.5V0.9c0-0.1,0.1-0.3,0.1-0.4c0.1-0.1,0.2-0.2,0.3-0.3S8.3,0.1,8.6,0c0.2,0,0.5,0,1,0s0.8,0,1,0.1
			c0.3,0.1,0.5,0.1,0.7,0.2c0.1,0.1,0.3,0.2,0.3,0.3c0.1,0.1,0.1,0.3,0.1,0.4v6.9h6.6c0.1,0,0.2,0,0.3,0.1c0.1,0.1,0.2,0.2,0.3,0.3
			s0.1,0.3,0.2,0.6C19.1,9.1,19.1,9.5,19.1,9.9z"/>
	</g>
</g>
</svg>
