<?xml version="1.0" encoding="utf-8"?>
<!-- Generator: Adobe Illustrator 19.2.1, SVG Export Plug-In . SVG Version: 6.00 Build 0)  -->
<!DOCTYPE svg PUBLIC "-//W3C//DTD SVG 1.1//EN" "http://www.w3.org/Graphics/SVG/1.1/DTD/svg11.dtd">
<svg version="1.1" id="Layer_1" xmlns="http://www.w3.org/2000/svg" xmlns:xlink="http://www.w3.org/1999/xlink" x="0px" y="0px"
	 viewBox="0 0 104 134" style="enable-background:new 0 0 104 134;" xml:space="preserve">
<style type="text/css">
	.st0{fill-rule:evenodd;clip-rule:evenodd;fill:#FFFFFF;}
	.st1{fill:#2BACE2;}
</style>
<path class="st0" d="M70.6,134c-0.9-0.1-1.9-0.2-2.8-0.3c-4.7-0.5-9.4-1.4-13.7-3.6c-0.3-0.2-0.6-0.3-0.9-0.5c-2-0.8-2.8-2.4-3-4.5
	c-0.2-2.4-0.4-4.8,0-7.2c0-0.1,0-0.1,0-0.2c0.4-1.7,1.4-2.2,3-1.4c4,2.2,8.3,3.7,12.8,4.4c3.2,0.5,6.5,0.5,9.7-0.3
	c3.8-1,6.9-3.1,8-7.1c1.5-5.3-0.5-11-6.7-13.5c-2.3-0.9-4.7-1.5-7.2-1.5c-3.2-0.1-6.5-0.1-9.7-0.1c-1.5,0-2.3-0.6-2.6-2.1
	c-0.5-2.5-0.5-5,0-7.5c0.3-1.6,1-2.1,2.7-2.1c2.4,0,4.8,0,7.1,0c2.6,0,5.2-0.5,7.6-1.5c3.7-1.5,5.7-4.4,6.4-8.3c0.4-2,0.2-4-0.6-5.9
	c-1.4-3.4-4.2-5.1-7.8-5.6c-4.2-0.6-8.1,0.5-11.9,2.2c-1.7,0.8-3.3,1.7-4.9,2.6c-0.6,0.3-1.2,0.7-1.9,1c-1.1,0.5-2,0-2.2-1.2
	c-0.6-2.8-0.5-5.6-0.2-8.5c0.2-1.3,1.1-2.3,2.2-3.1c2.7-1.9,5.6-3.2,8.7-4.1c7-2.1,14-2.5,21.1-0.9c3.2,0.7,6.1,1.9,8.6,4
	c3,2.5,5,5.6,5.8,9.4c0.9,3.9,0.9,7.9-0.2,11.7c-1.7,6.1-5.6,10.1-11.7,12.2c-0.5,0.2-1.1,0.4-1.8,0.6c1.3,0.3,2.5,0.5,3.6,0.8
	c5.5,1.5,9.8,4.5,12.4,9.7c1.5,3,1.9,6.3,1.7,9.6c-0.3,5.2-2.1,9.8-5.6,13.7c-3,3.4-6.8,5.5-11,6.9c-3.5,1.2-7.1,1.8-10.8,2
	c-0.3,0-0.6,0.1-0.9,0.1C73.1,134,71.8,134,70.6,134z"/>
<path class="st1" d="M75.9,38.7c0,1.5-0.1,2.8-0.2,3.8c-0.2,1-0.4,1.8-0.7,2.5c-0.3,0.6-0.7,1.1-1.1,1.3c-0.4,0.3-0.9,0.4-1.4,0.4
	H47.1V74c0,0.5-0.1,1-0.4,1.4c-0.3,0.4-0.7,0.8-1.4,1c-0.7,0.3-1.5,0.5-2.6,0.7c-1.1,0.2-2.4,0.2-4.1,0.2c-1.6,0-3-0.1-4.1-0.2
	c-1.1-0.2-2-0.4-2.6-0.7c-0.7-0.3-1.1-0.6-1.4-1c-0.3-0.4-0.4-0.9-0.4-1.4V46.7H4.8c-0.5,0-0.9-0.1-1.3-0.4C3,46,2.7,45.6,2.4,44.9
	c-0.3-0.6-0.6-1.4-0.8-2.5c-0.2-1-0.3-2.3-0.3-3.8c0-1.4,0.1-2.7,0.2-3.7c0.2-1,0.4-1.9,0.7-2.5c0.3-0.6,0.6-1.1,1-1.3
	c0.4-0.3,0.8-0.4,1.3-0.4h25.5V3.5c0-0.5,0.1-1,0.4-1.5c0.3-0.5,0.8-0.8,1.4-1.1c0.7-0.3,1.5-0.5,2.6-0.7C35.6,0.1,37,0,38.6,0
	c1.6,0,3,0.1,4.1,0.2c1.1,0.2,2,0.4,2.6,0.7c0.6,0.3,1.1,0.7,1.4,1.1c0.3,0.5,0.4,1,0.4,1.5v27.2h25.6c0.4,0,0.9,0.1,1.3,0.4
	c0.4,0.3,0.8,0.7,1.1,1.3c0.3,0.6,0.5,1.4,0.7,2.5C75.8,36,75.9,37.3,75.9,38.7z"/>
</svg>
