<?xml version="1.0" encoding="utf-8"?>
<!-- Generator: Adobe Illustrator 19.2.1, SVG Export Plug-In . SVG Version: 6.00 Build 0)  -->
<!DOCTYPE svg PUBLIC "-//W3C//DTD SVG 1.1//EN" "http://www.w3.org/Graphics/SVG/1.1/DTD/svg11.dtd">
<svg version="1.1" id="Layer_1" xmlns="http://www.w3.org/2000/svg" xmlns:xlink="http://www.w3.org/1999/xlink" x="0px" y="0px"
	 viewBox="0 0 95 52" style="enable-background:new 0 0 95 52;" xml:space="preserve">
<style type="text/css">
	.st0{fill:#424242;}
	.st1{fill:#3DB4E8;}
</style>
<g>
	<path class="st0" d="M32.9,19.4c0,0.3,0,0.6,0,0.8c0,0.2-0.1,0.4-0.1,0.5c-0.1,0.1-0.1,0.2-0.2,0.3c-0.1,0.1-0.2,0.1-0.3,0.1h-5.3
		v17c0,0.1,0,0.2-0.1,0.3c-0.1,0.1-0.2,0.2-0.4,0.2c-0.2,0.1-0.4,0.1-0.7,0.1c-0.3,0-0.6,0-1,0c-0.4,0-0.8,0-1,0
		c-0.3,0-0.5-0.1-0.7-0.1c-0.2-0.1-0.3-0.1-0.4-0.2c-0.1-0.1-0.1-0.2-0.1-0.3v-17h-5.3c-0.1,0-0.2,0-0.3-0.1
		c-0.1-0.1-0.1-0.2-0.2-0.3c-0.1-0.1-0.1-0.3-0.1-0.5c0-0.2,0-0.5,0-0.8c0-0.3,0-0.6,0-0.8c0-0.2,0.1-0.4,0.1-0.5
		c0.1-0.1,0.1-0.2,0.2-0.3c0.1-0.1,0.2-0.1,0.3-0.1h14.9c0.1,0,0.2,0,0.3,0.1c0.1,0.1,0.1,0.2,0.2,0.3c0.1,0.1,0.1,0.3,0.1,0.5
		C32.9,18.8,32.9,19.1,32.9,19.4"/>
	<path class="st0" d="M50.4,38.1c0,0.1,0,0.2-0.1,0.3c-0.1,0.1-0.2,0.2-0.4,0.2c-0.2,0.1-0.4,0.1-0.7,0.1c-0.3,0-0.6,0-1,0
		c-0.4,0-0.8,0-1.1,0c-0.3,0-0.5-0.1-0.7-0.1c-0.2-0.1-0.3-0.1-0.3-0.2c-0.1-0.1-0.1-0.2-0.1-0.3v-8.5h-7.9v8.5c0,0.1,0,0.2-0.1,0.3
		c-0.1,0.1-0.2,0.2-0.3,0.2c-0.2,0.1-0.4,0.1-0.7,0.1c-0.3,0-0.6,0-1,0c-0.4,0-0.8,0-1,0c-0.3,0-0.5-0.1-0.7-0.1
		c-0.2-0.1-0.3-0.1-0.4-0.2c-0.1-0.1-0.1-0.2-0.1-0.3V18.2c0-0.1,0-0.2,0.1-0.3c0.1-0.1,0.2-0.2,0.4-0.2c0.2-0.1,0.4-0.1,0.7-0.1
		c0.3,0,0.6,0,1,0c0.4,0,0.8,0,1,0c0.3,0,0.5,0.1,0.7,0.1c0.2,0.1,0.3,0.1,0.3,0.2c0.1,0.1,0.1,0.2,0.1,0.3V26h7.9v-7.7
		c0-0.1,0-0.2,0.1-0.3c0.1-0.1,0.2-0.2,0.3-0.2c0.2-0.1,0.4-0.1,0.7-0.1c0.3,0,0.6,0,1.1,0c0.4,0,0.8,0,1,0c0.3,0,0.5,0.1,0.7,0.1
		c0.2,0.1,0.3,0.1,0.4,0.2c0.1,0.1,0.1,0.2,0.1,0.3V38.1z"/>
	<path class="st0" d="M67.6,38.2c0,0.1,0,0.2-0.1,0.3c0,0.1-0.1,0.2-0.3,0.2c-0.2,0.1-0.4,0.1-0.7,0.1c-0.3,0-0.7,0-1.3,0
		c-0.5,0-0.8,0-1.1,0c-0.3,0-0.5-0.1-0.6-0.1c-0.2-0.1-0.3-0.1-0.3-0.2c-0.1-0.1-0.1-0.2-0.2-0.3l-1.9-4.7c-0.2-0.5-0.5-1-0.7-1.4
		c-0.2-0.4-0.5-0.8-0.7-1c-0.3-0.3-0.6-0.5-0.9-0.6c-0.3-0.1-0.8-0.2-1.2-0.2h-1.3v8c0,0.1,0,0.2-0.1,0.3c-0.1,0.1-0.2,0.2-0.4,0.2
		c-0.2,0.1-0.4,0.1-0.7,0.1c-0.3,0-0.6,0-1,0c-0.4,0-0.8,0-1,0c-0.3,0-0.5-0.1-0.7-0.1c-0.2-0.1-0.3-0.1-0.3-0.2
		c-0.1-0.1-0.1-0.2-0.1-0.3V19c0-0.5,0.1-0.8,0.4-1c0.2-0.2,0.5-0.3,0.9-0.3h5.5c0.6,0,1,0,1.4,0c0.4,0,0.7,0,1,0.1
		c0.8,0.1,1.6,0.3,2.3,0.6c0.7,0.3,1.3,0.7,1.7,1.2c0.5,0.5,0.8,1,1.1,1.7c0.2,0.6,0.4,1.4,0.4,2.2c0,0.7-0.1,1.4-0.3,1.9
		c-0.2,0.6-0.4,1.1-0.8,1.6c-0.3,0.5-0.8,0.9-1.3,1.2c-0.5,0.3-1.1,0.6-1.7,0.8c0.3,0.2,0.6,0.3,0.9,0.6c0.3,0.2,0.5,0.5,0.8,0.8
		c0.2,0.3,0.5,0.7,0.7,1.1c0.2,0.4,0.4,0.8,0.6,1.3l1.8,4.2c0.2,0.4,0.3,0.7,0.3,0.9C67.6,37.9,67.6,38.1,67.6,38.2 M62.1,23.9
		c0-0.7-0.2-1.3-0.5-1.8c-0.3-0.5-0.8-0.8-1.6-1c-0.2-0.1-0.5-0.1-0.7-0.1c-0.3,0-0.7,0-1.2,0h-1.9v6h2.2c0.6,0,1.1-0.1,1.6-0.2
		c0.5-0.1,0.8-0.4,1.1-0.6c0.3-0.3,0.5-0.6,0.7-1C62,24.7,62.1,24.3,62.1,23.9"/>
	<path class="st0" d="M81.1,37c0,0.3,0,0.6,0,0.8c0,0.2-0.1,0.4-0.1,0.5c-0.1,0.1-0.1,0.2-0.2,0.3c-0.1,0.1-0.2,0.1-0.3,0.1H69.8
		c-0.4,0-0.7-0.1-0.9-0.3c-0.2-0.2-0.4-0.6-0.4-1V19c0-0.5,0.1-0.8,0.4-1c0.2-0.2,0.5-0.3,0.9-0.3h10.5c0.1,0,0.2,0,0.3,0.1
		c0.1,0.1,0.1,0.1,0.2,0.3c0.1,0.1,0.1,0.3,0.1,0.5c0,0.2,0,0.5,0,0.8c0,0.3,0,0.6,0,0.8c0,0.2-0.1,0.4-0.1,0.5
		c-0.1,0.1-0.1,0.2-0.2,0.3c-0.1,0.1-0.2,0.1-0.3,0.1h-7.5v5.2h6.4c0.1,0,0.2,0,0.3,0.1c0.1,0.1,0.1,0.2,0.2,0.3
		c0.1,0.1,0.1,0.3,0.1,0.5c0,0.2,0,0.5,0,0.8c0,0.3,0,0.6,0,0.8c0,0.2-0.1,0.4-0.1,0.5c-0.1,0.1-0.1,0.2-0.2,0.3
		c-0.1,0.1-0.2,0.1-0.3,0.1h-6.4v6h7.6c0.1,0,0.2,0,0.3,0.1c0.1,0.1,0.1,0.2,0.2,0.3C81,35.9,81,36,81,36.3
		C81.1,36.5,81.1,36.7,81.1,37"/>
	<path class="st0" d="M94.7,37c0,0.3,0,0.6,0,0.8c0,0.2-0.1,0.4-0.1,0.5c-0.1,0.1-0.1,0.2-0.2,0.3c-0.1,0.1-0.2,0.1-0.3,0.1H83.5
		c-0.4,0-0.7-0.1-0.9-0.3c-0.2-0.2-0.4-0.6-0.4-1V19c0-0.5,0.1-0.8,0.4-1c0.2-0.2,0.5-0.3,0.9-0.3H94c0.1,0,0.2,0,0.3,0.1
		c0.1,0.1,0.1,0.1,0.2,0.3c0.1,0.1,0.1,0.3,0.1,0.5c0,0.2,0,0.5,0,0.8c0,0.3,0,0.6,0,0.8c0,0.2-0.1,0.4-0.1,0.5
		c-0.1,0.1-0.1,0.2-0.2,0.3C94.2,20.9,94.1,21,94,21h-7.5v5.2h6.4c0.1,0,0.2,0,0.3,0.1c0.1,0.1,0.1,0.2,0.2,0.3
		c0.1,0.1,0.1,0.3,0.1,0.5c0,0.2,0,0.5,0,0.8c0,0.3,0,0.6,0,0.8c0,0.2-0.1,0.4-0.1,0.5c-0.1,0.1-0.1,0.2-0.2,0.3
		c-0.1,0.1-0.2,0.1-0.3,0.1h-6.4v6h7.6c0.1,0,0.2,0,0.3,0.1c0.1,0.1,0.1,0.2,0.2,0.3c0.1,0.1,0.1,0.3,0.1,0.5
		C94.7,36.5,94.7,36.7,94.7,37"/>
	<path class="st0" d="M24.5,40.6c0,0.3-0.1,0.6-0.2,0.7c-0.1,0.1-0.4,0.2-0.7,0.2c-0.3,0-0.6-0.1-0.7-0.2c-0.1-0.1-0.2-0.4-0.2-0.7
		c0-0.3,0.1-0.6,0.2-0.7c0.1-0.1,0.4-0.2,0.7-0.2c0.3,0,0.6,0.1,0.7,0.2C24.5,40.1,24.5,40.3,24.5,40.6 M24.3,51.5c0,0,0,0.1,0,0.1
		c0,0-0.1,0.1-0.1,0.1c-0.1,0-0.1,0-0.2,0.1c-0.1,0-0.2,0-0.4,0c-0.1,0-0.3,0-0.4,0c-0.1,0-0.2,0-0.2-0.1c-0.1,0-0.1-0.1-0.1-0.1
		c0,0,0-0.1,0-0.1v-8.1c0,0,0-0.1,0-0.1c0,0,0.1-0.1,0.1-0.1c0.1,0,0.1,0,0.2-0.1c0.1,0,0.2,0,0.4,0c0.2,0,0.3,0,0.4,0
		c0.1,0,0.2,0,0.2,0.1c0.1,0,0.1,0.1,0.1,0.1c0,0,0,0.1,0,0.1V51.5z"/>
	<path class="st0" d="M33.4,51.5c0,0,0,0.1,0,0.1c0,0-0.1,0.1-0.1,0.1c-0.1,0-0.1,0-0.2,0.1c-0.1,0-0.2,0-0.4,0c-0.2,0-0.3,0-0.4,0
		c-0.1,0-0.2,0-0.2-0.1c-0.1,0-0.1-0.1-0.1-0.1c0,0,0-0.1,0-0.1v-4.8c0-0.5,0-0.8-0.1-1.1c-0.1-0.3-0.2-0.5-0.3-0.7
		c-0.1-0.2-0.3-0.4-0.5-0.5c-0.2-0.1-0.5-0.2-0.8-0.2c-0.4,0-0.7,0.1-1.1,0.4c-0.4,0.3-0.8,0.7-1.2,1.2v5.7c0,0,0,0.1,0,0.1
		c0,0-0.1,0.1-0.1,0.1c-0.1,0-0.1,0-0.2,0.1c-0.1,0-0.2,0-0.4,0c-0.1,0-0.3,0-0.4,0c-0.1,0-0.2,0-0.2-0.1c-0.1,0-0.1-0.1-0.1-0.1
		c0,0,0-0.1,0-0.1v-8.1c0,0,0-0.1,0-0.1c0,0,0.1-0.1,0.1-0.1c0.1,0,0.1,0,0.2-0.1c0.1,0,0.2,0,0.3,0c0.1,0,0.2,0,0.3,0
		c0.1,0,0.2,0,0.2,0.1c0,0,0.1,0.1,0.1,0.1c0,0,0,0.1,0,0.1v1.1c0.5-0.5,0.9-0.9,1.4-1.1c0.5-0.2,0.9-0.4,1.4-0.4
		c0.5,0,1,0.1,1.4,0.3c0.4,0.2,0.7,0.4,0.9,0.7c0.2,0.3,0.4,0.7,0.5,1.1c0.1,0.4,0.1,0.9,0.1,1.5V51.5z"/>
	<path class="st0" d="M39.7,50.9c0,0.2,0,0.3,0,0.4c0,0.1-0.1,0.2-0.1,0.2c0,0-0.1,0.1-0.2,0.1c-0.1,0-0.2,0.1-0.3,0.1
		c-0.1,0-0.3,0-0.4,0.1c-0.1,0-0.3,0-0.4,0c-0.4,0-0.8-0.1-1.1-0.2c-0.3-0.1-0.5-0.3-0.7-0.5c-0.2-0.2-0.3-0.5-0.4-0.9
		c-0.1-0.3-0.1-0.8-0.1-1.2v-4.7h-1.1c-0.1,0-0.2,0-0.2-0.1c-0.1-0.1-0.1-0.3-0.1-0.5c0-0.1,0-0.2,0-0.3c0-0.1,0-0.1,0.1-0.2
		c0,0,0.1-0.1,0.1-0.1c0,0,0.1,0,0.1,0h1.1v-1.9c0,0,0-0.1,0-0.1c0,0,0.1-0.1,0.1-0.1c0.1,0,0.1,0,0.2-0.1c0.1,0,0.2,0,0.4,0
		c0.2,0,0.3,0,0.4,0c0.1,0,0.2,0,0.2,0.1c0.1,0,0.1,0.1,0.1,0.1c0,0,0,0.1,0,0.1v1.9h2.1c0,0,0.1,0,0.1,0c0,0,0.1,0.1,0.1,0.1
		c0,0.1,0,0.1,0.1,0.2c0,0.1,0,0.2,0,0.3c0,0.2,0,0.4-0.1,0.5c-0.1,0.1-0.1,0.1-0.2,0.1h-2.1v4.5c0,0.6,0.1,1,0.2,1.3
		c0.2,0.3,0.5,0.4,0.9,0.4c0.1,0,0.3,0,0.4,0c0.1,0,0.2-0.1,0.3-0.1c0.1,0,0.2-0.1,0.2-0.1c0.1,0,0.1,0,0.2,0c0,0,0.1,0,0.1,0
		c0,0,0,0,0.1,0.1c0,0,0,0.1,0,0.2C39.7,50.7,39.7,50.8,39.7,50.9"/>
	<path class="st0" d="M48,47.1c0,0.2-0.1,0.4-0.2,0.5c-0.1,0.1-0.3,0.1-0.4,0.1H42c0,0.5,0,0.9,0.1,1.2c0.1,0.4,0.2,0.7,0.5,0.9
		c0.2,0.3,0.5,0.5,0.8,0.6c0.3,0.1,0.8,0.2,1.2,0.2c0.4,0,0.7,0,1-0.1c0.3-0.1,0.6-0.1,0.8-0.2c0.2-0.1,0.4-0.1,0.5-0.2
		c0.1-0.1,0.2-0.1,0.3-0.1c0,0,0.1,0,0.1,0c0,0,0.1,0.1,0.1,0.1c0,0,0,0.1,0,0.2c0,0.1,0,0.2,0,0.3c0,0.1,0,0.1,0,0.2
		c0,0.1,0,0.1,0,0.2c0,0,0,0.1,0,0.1c0,0,0,0.1-0.1,0.1c0,0-0.1,0.1-0.3,0.2c-0.2,0.1-0.4,0.1-0.6,0.2c-0.3,0.1-0.6,0.1-0.9,0.2
		c-0.3,0.1-0.7,0.1-1.1,0.1c-0.7,0-1.3-0.1-1.8-0.3c-0.5-0.2-0.9-0.5-1.3-0.8c-0.3-0.4-0.6-0.8-0.8-1.4c-0.2-0.6-0.3-1.2-0.3-1.9
		c0-0.7,0.1-1.3,0.3-1.9c0.2-0.6,0.4-1,0.8-1.4c0.3-0.4,0.7-0.7,1.2-0.9c0.5-0.2,1-0.3,1.6-0.3c0.6,0,1.2,0.1,1.6,0.3
		c0.4,0.2,0.8,0.5,1.1,0.8c0.3,0.3,0.5,0.8,0.6,1.2c0.1,0.5,0.2,1,0.2,1.5V47.1z M46.5,46.6c0-0.8-0.2-1.4-0.5-1.8
		c-0.4-0.4-0.9-0.7-1.6-0.7c-0.4,0-0.7,0.1-1,0.2c-0.3,0.1-0.5,0.3-0.7,0.6c-0.2,0.2-0.3,0.5-0.4,0.8c-0.1,0.3-0.2,0.6-0.2,1H46.5z"
		/>
	<path class="st0" d="M54.3,43.9c0,0.1,0,0.2,0,0.3c0,0.1,0,0.2,0,0.2c0,0.1,0,0.1-0.1,0.1c0,0-0.1,0-0.1,0c0,0-0.1,0-0.2,0
		c-0.1,0-0.1-0.1-0.2-0.1c-0.1,0-0.2-0.1-0.3-0.1s-0.2,0-0.4,0c-0.1,0-0.3,0-0.4,0.1c-0.1,0.1-0.3,0.2-0.5,0.3
		c-0.2,0.1-0.3,0.3-0.5,0.5c-0.2,0.2-0.4,0.5-0.6,0.8v5.3c0,0,0,0.1,0,0.1c0,0-0.1,0.1-0.1,0.1c-0.1,0-0.1,0-0.2,0.1
		c-0.1,0-0.2,0-0.4,0c-0.1,0-0.3,0-0.4,0c-0.1,0-0.2,0-0.2-0.1c-0.1,0-0.1-0.1-0.1-0.1c0,0,0-0.1,0-0.1v-8.1c0,0,0-0.1,0-0.1
		c0,0,0.1-0.1,0.1-0.1c0.1,0,0.1,0,0.2-0.1c0.1,0,0.2,0,0.3,0c0.1,0,0.2,0,0.3,0c0.1,0,0.2,0,0.2,0.1c0,0,0.1,0.1,0.1,0.1
		c0,0,0,0.1,0,0.1v1.2c0.2-0.3,0.4-0.6,0.6-0.8c0.2-0.2,0.4-0.4,0.6-0.5c0.2-0.1,0.3-0.2,0.5-0.2c0.2,0,0.3-0.1,0.5-0.1
		c0.1,0,0.2,0,0.3,0c0.1,0,0.2,0,0.3,0c0.1,0,0.2,0.1,0.3,0.1c0.1,0,0.1,0.1,0.2,0.1c0,0,0.1,0.1,0.1,0.1c0,0,0,0.1,0,0.1
		c0,0,0,0.1,0,0.2C54.3,43.7,54.3,43.8,54.3,43.9"/>
	<path class="st0" d="M61.5,51.5c0,0.1,0,0.1-0.1,0.2c0,0-0.1,0.1-0.2,0.1c-0.1,0-0.2,0-0.4,0c-0.2,0-0.3,0-0.4,0
		c-0.1,0-0.2,0-0.2-0.1c0,0-0.1-0.1-0.1-0.2v-0.8c-0.4,0.4-0.7,0.7-1.2,0.9c-0.4,0.2-0.9,0.3-1.4,0.3c-0.4,0-0.8-0.1-1.2-0.2
		c-0.3-0.1-0.6-0.3-0.9-0.5c-0.2-0.2-0.4-0.5-0.6-0.8c-0.1-0.3-0.2-0.7-0.2-1c0-0.5,0.1-0.9,0.3-1.2c0.2-0.3,0.5-0.6,0.8-0.8
		c0.3-0.2,0.8-0.4,1.3-0.5c0.5-0.1,1.1-0.2,1.7-0.2H60v-0.6c0-0.3,0-0.6-0.1-0.8c-0.1-0.2-0.2-0.4-0.3-0.6c-0.1-0.2-0.3-0.3-0.6-0.4
		c-0.2-0.1-0.5-0.1-0.9-0.1c-0.4,0-0.7,0-1,0.1c-0.3,0.1-0.5,0.2-0.8,0.3c-0.2,0.1-0.4,0.2-0.5,0.3C55.7,45,55.6,45,55.5,45
		c0,0-0.1,0-0.1,0c0,0-0.1-0.1-0.1-0.1c0,0,0-0.1-0.1-0.2c0-0.1,0-0.2,0-0.2c0-0.1,0-0.3,0-0.4c0-0.1,0.1-0.2,0.2-0.2
		c0.1-0.1,0.2-0.2,0.4-0.3c0.2-0.1,0.4-0.2,0.7-0.3c0.3-0.1,0.5-0.2,0.8-0.2C57.7,43,58,43,58.3,43c0.6,0,1.1,0.1,1.5,0.2
		c0.4,0.1,0.7,0.3,1,0.6c0.3,0.3,0.4,0.6,0.5,1c0.1,0.4,0.2,0.8,0.2,1.3V51.5z M60,47.8h-1.3c-0.4,0-0.8,0-1.1,0.1
		c-0.3,0.1-0.5,0.2-0.7,0.3c-0.2,0.1-0.3,0.3-0.4,0.5c-0.1,0.2-0.1,0.4-0.1,0.7c0,0.4,0.1,0.8,0.4,1c0.3,0.3,0.6,0.4,1.1,0.4
		c0.4,0,0.8-0.1,1.1-0.3c0.3-0.2,0.7-0.5,1.1-0.9V47.8z"/>
	<path class="st0" d="M69.4,50.3c0,0.1,0,0.2,0,0.3c0,0.1,0,0.1,0,0.2c0,0.1,0,0.1-0.1,0.1c0,0-0.1,0.1-0.1,0.2
		c-0.1,0.1-0.2,0.2-0.4,0.3c-0.2,0.1-0.4,0.2-0.6,0.3c-0.2,0.1-0.5,0.2-0.7,0.2c-0.3,0.1-0.5,0.1-0.8,0.1c-0.6,0-1.1-0.1-1.6-0.3
		c-0.5-0.2-0.8-0.5-1.1-0.8c-0.3-0.4-0.5-0.8-0.7-1.4c-0.2-0.5-0.2-1.2-0.2-1.9c0-0.8,0.1-1.5,0.3-2.1c0.2-0.6,0.5-1,0.8-1.4
		c0.3-0.4,0.7-0.6,1.2-0.8c0.5-0.2,1-0.3,1.5-0.3c0.3,0,0.5,0,0.8,0.1c0.2,0,0.5,0.1,0.7,0.2c0.2,0.1,0.4,0.2,0.5,0.3
		c0.2,0.1,0.3,0.2,0.3,0.3c0.1,0.1,0.1,0.1,0.1,0.2c0,0,0,0.1,0.1,0.1c0,0.1,0,0.1,0,0.2c0,0.1,0,0.2,0,0.3c0,0.2,0,0.4-0.1,0.5
		c-0.1,0.1-0.1,0.1-0.2,0.1c-0.1,0-0.2,0-0.3-0.1c-0.1-0.1-0.3-0.2-0.4-0.3c-0.2-0.1-0.4-0.2-0.7-0.3c-0.3-0.1-0.6-0.1-0.9-0.1
		c-0.7,0-1.3,0.3-1.6,0.8c-0.4,0.5-0.6,1.3-0.6,2.4c0,0.5,0,1,0.1,1.4c0.1,0.4,0.2,0.7,0.4,1c0.2,0.3,0.4,0.5,0.7,0.6
		c0.3,0.1,0.6,0.2,1,0.2c0.3,0,0.6-0.1,0.9-0.2c0.3-0.1,0.5-0.2,0.7-0.4c0.2-0.1,0.3-0.2,0.5-0.4c0.1-0.1,0.2-0.2,0.3-0.2
		c0,0,0.1,0,0.1,0c0,0,0.1,0.1,0.1,0.1c0,0.1,0,0.1,0,0.2C69.4,50,69.4,50.1,69.4,50.3"/>
	<path class="st0" d="M77.8,43.2c0.2,0,0.3,0,0.4,0.1c0.1,0.1,0.1,0.2,0.1,0.4v7.9c0,0,0,0.1,0,0.1c0,0-0.1,0.1-0.1,0.1
		c-0.1,0-0.1,0-0.2,0.1c-0.1,0-0.2,0-0.4,0c-0.2,0-0.3,0-0.4,0c-0.1,0-0.2,0-0.2-0.1c-0.1,0-0.1-0.1-0.1-0.1c0,0,0-0.1,0-0.1v-7.1
		h-4.2v4.5c0,0.6,0.1,1,0.2,1.3c0.2,0.3,0.5,0.4,0.9,0.4c0.1,0,0.3,0,0.4,0c0.1,0,0.2-0.1,0.3-0.1c0.1,0,0.2-0.1,0.2-0.1
		c0.1,0,0.1,0,0.2,0c0,0,0.1,0,0.1,0c0,0,0,0,0.1,0.1c0,0,0,0.1,0,0.2c0,0.1,0,0.2,0,0.3c0,0.2,0,0.3,0,0.4c0,0.1-0.1,0.2-0.1,0.2
		c0,0.1-0.1,0.1-0.2,0.1c-0.1,0-0.2,0.1-0.3,0.1c-0.1,0-0.3,0-0.4,0.1c-0.1,0-0.3,0-0.4,0c-0.4,0-0.8-0.1-1.1-0.2
		c-0.3-0.1-0.5-0.3-0.7-0.5c-0.2-0.2-0.3-0.5-0.4-0.9c-0.1-0.3-0.1-0.8-0.1-1.2v-4.7H70c-0.1,0-0.2,0-0.2-0.1
		c-0.1-0.1-0.1-0.3-0.1-0.5c0-0.1,0-0.2,0-0.3c0-0.1,0-0.1,0.1-0.2c0,0,0.1-0.1,0.1-0.1c0,0,0.1,0,0.1,0h1.1v-1.9c0,0,0-0.1,0-0.1
		c0,0,0.1-0.1,0.1-0.1c0.1,0,0.1,0,0.2-0.1c0.1,0,0.2,0,0.4,0c0.1,0,0.3,0,0.4,0c0.1,0,0.2,0,0.2,0.1c0.1,0,0.1,0.1,0.1,0.1
		s0,0.1,0,0.1v1.9H77.8z M78.4,40.6c0,0.3-0.1,0.6-0.2,0.7c-0.1,0.1-0.4,0.2-0.7,0.2c-0.3,0-0.6-0.1-0.7-0.2
		c-0.1-0.1-0.2-0.4-0.2-0.7c0-0.3,0.1-0.6,0.2-0.7c0.1-0.1,0.4-0.2,0.7-0.2c0.3,0,0.6,0.1,0.7,0.2C78.4,40.1,78.4,40.3,78.4,40.6"/>
	<path class="st0" d="M87,43.4C87,43.4,87,43.4,87,43.4c0,0.1,0,0.1,0,0.2c0,0,0,0.1,0,0.1c0,0,0,0.1,0,0.1l-2.8,7.7
		c0,0.1-0.1,0.1-0.1,0.2c0,0-0.1,0.1-0.2,0.1c-0.1,0-0.2,0-0.3,0c-0.1,0-0.3,0-0.5,0c-0.2,0-0.3,0-0.5,0c-0.1,0-0.2,0-0.3-0.1
		c-0.1,0-0.1-0.1-0.2-0.1c0,0-0.1-0.1-0.1-0.2l-2.8-7.7c0-0.1,0-0.1-0.1-0.2c0-0.1,0-0.1,0-0.1c0,0,0,0,0-0.1c0,0,0-0.1,0-0.1
		c0,0,0.1-0.1,0.1-0.1c0.1,0,0.1,0,0.2,0c0.1,0,0.2,0,0.3,0c0.2,0,0.3,0,0.4,0c0.1,0,0.2,0,0.2,0c0.1,0,0.1,0.1,0.1,0.1
		c0,0,0.1,0.1,0.1,0.1l2.3,6.7l0,0.1l0-0.1l2.3-6.7c0-0.1,0-0.1,0.1-0.1c0,0,0.1-0.1,0.1-0.1c0.1,0,0.1,0,0.2,0c0.1,0,0.2,0,0.4,0
		c0.1,0,0.3,0,0.3,0c0.1,0,0.2,0,0.2,0c0.1,0,0.1,0.1,0.1,0.1C87,43.3,87,43.3,87,43.4"/>
	<path class="st0" d="M95,47.1c0,0.2-0.1,0.4-0.2,0.5c-0.1,0.1-0.3,0.1-0.4,0.1h-5.3c0,0.5,0,0.9,0.1,1.2c0.1,0.4,0.2,0.7,0.5,0.9
		c0.2,0.3,0.5,0.5,0.8,0.6c0.3,0.1,0.8,0.2,1.2,0.2c0.4,0,0.7,0,1-0.1c0.3-0.1,0.6-0.1,0.8-0.2c0.2-0.1,0.4-0.1,0.5-0.2
		c0.1-0.1,0.2-0.1,0.3-0.1c0,0,0.1,0,0.1,0c0,0,0.1,0.1,0.1,0.1c0,0,0,0.1,0,0.2c0,0.1,0,0.2,0,0.3c0,0.1,0,0.1,0,0.2
		c0,0.1,0,0.1,0,0.2c0,0,0,0.1,0,0.1c0,0,0,0.1-0.1,0.1c0,0-0.1,0.1-0.3,0.2c-0.2,0.1-0.4,0.1-0.6,0.2c-0.3,0.1-0.6,0.1-0.9,0.2
		c-0.3,0.1-0.7,0.1-1.1,0.1c-0.7,0-1.3-0.1-1.8-0.3c-0.5-0.2-0.9-0.5-1.3-0.8c-0.3-0.4-0.6-0.8-0.8-1.4c-0.2-0.6-0.3-1.2-0.3-1.9
		c0-0.7,0.1-1.3,0.3-1.9c0.2-0.6,0.4-1,0.8-1.4c0.3-0.4,0.7-0.7,1.2-0.9c0.5-0.2,1-0.3,1.6-0.3c0.6,0,1.2,0.1,1.6,0.3
		c0.4,0.2,0.8,0.5,1.1,0.8c0.3,0.3,0.5,0.8,0.6,1.2c0.1,0.5,0.2,1,0.2,1.5V47.1z M93.5,46.6c0-0.8-0.2-1.4-0.5-1.8
		c-0.4-0.4-0.9-0.7-1.6-0.7c-0.4,0-0.7,0.1-1,0.2c-0.3,0.1-0.5,0.3-0.7,0.6c-0.2,0.2-0.3,0.5-0.4,0.8c-0.1,0.3-0.2,0.6-0.2,1H93.5z"
		/>
	<path class="st1" d="M22.6,11.8c0,0.5,0,0.8-0.1,1.1c0,0.3-0.1,0.6-0.2,0.7c-0.1,0.2-0.2,0.3-0.3,0.4c-0.1,0.1-0.3,0.1-0.4,0.1
		h-7.7v8.3c0,0.2,0,0.3-0.1,0.4c-0.1,0.1-0.2,0.2-0.4,0.3c-0.2,0.1-0.5,0.2-0.8,0.2c-0.3,0-0.7,0.1-1.2,0.1c-0.5,0-0.9,0-1.2-0.1
		c-0.3,0-0.6-0.1-0.8-0.2C9.1,23.2,9,23.1,8.9,23c-0.1-0.1-0.1-0.3-0.1-0.4v-8.3H1.1c-0.1,0-0.3,0-0.4-0.1c-0.1-0.1-0.2-0.2-0.3-0.4
		c-0.1-0.2-0.2-0.4-0.2-0.7C0,12.7,0,12.3,0,11.8c0-0.4,0-0.8,0.1-1.1c0-0.3,0.1-0.6,0.2-0.8c0.1-0.2,0.2-0.3,0.3-0.4
		C0.7,9.5,0.8,9.4,1,9.4h7.7V1.2c0-0.2,0-0.3,0.1-0.5C9,0.6,9.1,0.5,9.3,0.4c0.2-0.1,0.5-0.2,0.8-0.2c0.3,0,0.7-0.1,1.2-0.1
		c0.5,0,0.9,0,1.2,0.1c0.3,0,0.6,0.1,0.8,0.2c0.2,0.1,0.3,0.2,0.4,0.3c0.1,0.1,0.1,0.3,0.1,0.5v8.3h7.8c0.1,0,0.3,0,0.4,0.1
		c0.1,0.1,0.2,0.2,0.3,0.4c0.1,0.2,0.2,0.4,0.2,0.8C22.6,11,22.6,11.4,22.6,11.8"/>
</g>
</svg>
