<?xml version="1.0" encoding="utf-8"?>
<!-- Generator: Adobe Illustrator 21.0.2, SVG Export Plug-In . SVG Version: 6.00 Build 0)  -->
<!DOCTYPE svg PUBLIC "-//W3C//DTD SVG 1.1//EN" "http://www.w3.org/Graphics/SVG/1.1/DTD/svg11.dtd">
<svg version="1.1" id="Layer_1" xmlns="http://www.w3.org/2000/svg" xmlns:xlink="http://www.w3.org/1999/xlink" x="0px" y="0px"
	 viewBox="0 0 62 80" style="enable-background:new 0 0 62 80;" xml:space="preserve">
<style type="text/css">
	.st0{fill:#414141;}
	.st1{fill:#2EA5D7;}
</style>
<g>
	<g>
		<path class="st0" d="M61.4,65.3c0,2.4-0.5,4.4-1.3,6.3c-0.9,1.8-2.2,3.4-3.8,4.6c-1.6,1.2-3.5,2.2-5.8,2.8c-2.2,0.6-4.7,1-7.3,1
			c-1.6,0-3.1-0.1-4.5-0.3c-1.4-0.2-2.7-0.5-3.7-0.9c-1.1-0.3-2-0.7-2.7-1.1c-0.7-0.4-1.2-0.6-1.4-0.8c-0.2-0.2-0.4-0.4-0.5-0.7
			c-0.1-0.2-0.2-0.5-0.3-0.9c-0.1-0.3-0.1-0.7-0.2-1.2c0-0.5-0.1-1.1-0.1-1.8c0-1.2,0.1-2,0.3-2.4c0.2-0.4,0.5-0.7,0.9-0.7
			c0.2,0,0.7,0.2,1.3,0.5c0.6,0.3,1.4,0.7,2.3,1.1c0.9,0.4,2,0.7,3.2,1.1c1.2,0.3,2.6,0.5,4.2,0.5c1.3,0,2.5-0.2,3.5-0.5
			c1-0.3,1.9-0.8,2.6-1.3c0.7-0.6,1.3-1.3,1.6-2.1c0.4-0.8,0.5-1.7,0.5-2.7c0-1.1-0.2-2.1-0.6-3c-0.4-0.9-1.1-1.6-1.9-2.2
			c-0.8-0.6-1.9-1.1-3.2-1.4c-1.3-0.3-2.8-0.5-4.5-0.5H36c-0.3,0-0.6,0-0.8-0.1c-0.2-0.1-0.4-0.3-0.5-0.5c-0.1-0.3-0.2-0.6-0.3-1.1
			c-0.1-0.5-0.1-1.1-0.1-1.8c0-0.7,0-1.3,0.1-1.7c0.1-0.4,0.2-0.8,0.3-1c0.1-0.2,0.3-0.4,0.5-0.5c0.2-0.1,0.5-0.1,0.7-0.1H40
			c1.4,0,2.7-0.2,3.8-0.5c1.1-0.3,2-0.8,2.8-1.4c0.7-0.6,1.3-1.3,1.7-2.2c0.4-0.9,0.6-1.8,0.6-2.9c0-0.8-0.1-1.6-0.4-2.3
			c-0.3-0.7-0.7-1.3-1.2-1.9c-0.5-0.5-1.2-0.9-2-1.2c-0.8-0.3-1.8-0.5-2.9-0.5c-1.3,0-2.5,0.2-3.6,0.6c-1.1,0.4-2.1,0.8-3,1.2
			c-0.9,0.4-1.6,0.9-2.3,1.3c-0.6,0.4-1.1,0.6-1.4,0.6c-0.2,0-0.4,0-0.5-0.1c-0.1-0.1-0.3-0.2-0.4-0.5c-0.1-0.2-0.2-0.6-0.2-1.1
			c0-0.5-0.1-1.1-0.1-1.8c0-0.6,0-1.1,0-1.5c0-0.4,0.1-0.7,0.1-1c0.1-0.3,0.2-0.5,0.3-0.7c0.1-0.2,0.3-0.4,0.5-0.6
			c0.2-0.2,0.7-0.6,1.5-1c0.8-0.5,1.7-0.9,2.8-1.3c1.1-0.4,2.5-0.8,4-1.1c1.5-0.3,3.1-0.5,4.9-0.5c2.3,0,4.3,0.3,6.1,0.8
			c1.8,0.5,3.2,1.3,4.4,2.3c1.2,1,2.1,2.2,2.7,3.7c0.6,1.5,0.9,3.1,0.9,5c0,1.4-0.2,2.8-0.5,4c-0.4,1.2-0.9,2.3-1.6,3.3
			c-0.7,1-1.6,1.8-2.6,2.5c-1.1,0.7-2.3,1.2-3.7,1.5v0.1c1.7,0.2,3.1,0.6,4.4,1.3c1.3,0.6,2.4,1.5,3.3,2.4c0.9,1,1.6,2.1,2.1,3.3
			C61.1,62.6,61.4,63.9,61.4,65.3z"/>
	</g>
	<g>
		<path class="st1" d="M45.2,23.1c0,0.9,0,1.7-0.1,2.3c-0.1,0.6-0.2,1.1-0.4,1.5c-0.2,0.4-0.4,0.6-0.7,0.8c-0.3,0.2-0.5,0.2-0.8,0.2
			H28v16.3c0,0.3-0.1,0.6-0.2,0.8c-0.2,0.2-0.4,0.4-0.8,0.6c-0.4,0.2-0.9,0.3-1.6,0.4c-0.6,0.1-1.5,0.1-2.4,0.1c-1,0-1.8,0-2.4-0.1
			c-0.7-0.1-1.2-0.2-1.6-0.4c-0.4-0.2-0.7-0.4-0.9-0.6c-0.2-0.2-0.3-0.5-0.3-0.8V27.9H2.7c-0.3,0-0.6-0.1-0.8-0.2
			c-0.2-0.2-0.5-0.4-0.7-0.8c-0.2-0.4-0.3-0.9-0.5-1.5c-0.1-0.6-0.2-1.4-0.2-2.3c0-0.9,0-1.6,0.1-2.2c0.1-0.6,0.2-1.1,0.4-1.5
			c0.2-0.4,0.4-0.6,0.6-0.8c0.2-0.2,0.5-0.2,0.8-0.2h15.2V2.1c0-0.3,0.1-0.6,0.3-0.9c0.2-0.3,0.5-0.5,0.9-0.7
			c0.4-0.2,0.9-0.3,1.6-0.4C21.2,0,22,0,22.9,0c1,0,1.8,0,2.4,0.1c0.6,0.1,1.2,0.2,1.6,0.4c0.4,0.2,0.7,0.4,0.8,0.7
			C27.9,1.5,28,1.8,28,2.1v16.2h15.3c0.3,0,0.5,0.1,0.8,0.2c0.2,0.2,0.5,0.4,0.6,0.8c0.2,0.4,0.3,0.9,0.4,1.5
			C45.2,21.5,45.2,22.3,45.2,23.1z"/>
	</g>
</g>
</svg>
