<?xml version="1.0" encoding="utf-8"?>
<!-- Generator: Adobe Illustrator 21.0.2, SVG Export Plug-In . SVG Version: 6.00 Build 0)  -->
<!DOCTYPE svg PUBLIC "-//W3C//DTD SVG 1.1//EN" "http://www.w3.org/Graphics/SVG/1.1/DTD/svg11.dtd">
<svg version="1.1" id="Layer_1" xmlns="http://www.w3.org/2000/svg" xmlns:xlink="http://www.w3.org/1999/xlink" x="0px" y="0px"
	 viewBox="0 0 16 16" style="enable-background:new 0 0 16 16;" xml:space="preserve">
<style type="text/css">
	.st0{fill-rule:evenodd;clip-rule:evenodd;}
</style>
<g id="interface_-_arrow_bottom">
	<g>
		<path class="st0" d="M14,0H2C0.9,0,0,0.9,0,2v12c0,1.1,0.9,2,2,2h12c1.1,0,2-0.9,2-2V2C16,0.9,15.1,0,14,0z M15,14
			c0,0.6-0.4,1-1,1H2c-0.6,0-1-0.4-1-1V2c0-0.6,0.4-1,1-1h12c0.6,0,1,0.4,1,1V14z M12.2,6.2L8,9.8L3.9,6.1c-0.2-0.2-0.5-0.2-0.7,0
			C3,6.3,3,6.6,3.1,6.8l4.5,4c0,0,0,0,0,0C7.7,11,7.9,11,8,11c0.1,0,0.3,0,0.4-0.1c0,0,0,0,0,0l4.5-4c0.2-0.2,0.2-0.5,0-0.7
			C12.7,6,12.4,6,12.2,6.2z"/>
	</g>
</g>
</svg>
