<?xml version="1.0" encoding="utf-8"?>
<!-- Generator: Adobe Illustrator 21.0.2, SVG Export Plug-In . SVG Version: 6.00 Build 0)  -->
<!DOCTYPE svg PUBLIC "-//W3C//DTD SVG 1.1//EN" "http://www.w3.org/Graphics/SVG/1.1/DTD/svg11.dtd">
<svg version="1.1" id="Layer_1" xmlns="http://www.w3.org/2000/svg" xmlns:xlink="http://www.w3.org/1999/xlink" x="0px" y="0px"
	 viewBox="0 0 16 16" style="enable-background:new 0 0 16 16;" xml:space="preserve">
<style type="text/css">
	.st0{fill-rule:evenodd;clip-rule:evenodd;}
</style>
<g id="editorial_-_trash_can">
	<g>
		<path class="st0" d="M8.5,5.5h-1v7h1V5.5z M15,2h-4.5V0.5C10.5,0.2,10.3,0,10,0H6C5.7,0,5.5,0.2,5.5,0.5V2H1
			C0.7,2,0.5,2.2,0.5,2.5C0.5,2.8,0.7,3,1,3h0.5v12c0,0.6,0.4,1,1,1h11c0.6,0,1-0.4,1-1V3H15c0.3,0,0.5-0.2,0.5-0.5
			C15.5,2.2,15.3,2,15,2z M6.5,1h3v1h-3V1z M13.5,14.5c0,0.3-0.2,0.5-0.5,0.5H3c-0.3,0-0.5-0.2-0.5-0.5V3h11V14.5z M5.5,6.5h-1v6h1
			V6.5z M11.5,6.5h-1v6h1V6.5z"/>
	</g>
</g>
</svg>
