<?xml version="1.0" encoding="utf-8"?>
<!-- Generator: Adobe Illustrator 21.0.2, SVG Export Plug-In . SVG Version: 6.00 Build 0)  -->
<!DOCTYPE svg PUBLIC "-//W3C//DTD SVG 1.1//EN" "http://www.w3.org/Graphics/SVG/1.1/DTD/svg11.dtd">
<svg version="1.1" id="Layer_1" xmlns="http://www.w3.org/2000/svg" xmlns:xlink="http://www.w3.org/1999/xlink" x="0px" y="0px"
	 viewBox="0 0 16 16" style="enable-background:new 0 0 16 16;" xml:space="preserve">
<style type="text/css">
	.st0{fill-rule:evenodd;clip-rule:evenodd;}
</style>
<g id="document_-_compose_pencil_write_1_">
	<g>
		<path class="st0" d="M14,15H1V2h8V1H0v15h15V7h-1V15z M4.4,8.1L3.7,8.8v0L3.4,9.1L3,13l3.9-0.4l0.4-0.4v0l0.4-0.4l5.6-5.6v0
			l0.7-0.7L16,3.5L12.5,0l-2.1,2.1l0,0L9.7,2.8v0L4.4,8.1L4.4,8.1z M4.1,11.9l0.4-2.5l0,0l2.1,2.1L4.1,11.9z M12.5,1.4l2.1,2.1
			l-1.4,1.4l-2.1-2.1L12.5,1.4z M10.4,3.5l2.1,2.1l-5.3,5.3L5.1,8.8L10.4,3.5z"/>
	</g>
</g>
</svg>
