<?xml version="1.0" encoding="utf-8"?>
<!-- Generator: Adobe Illustrator 21.0.2, SVG Export Plug-In . SVG Version: 6.00 Build 0)  -->
<!DOCTYPE svg PUBLIC "-//W3C//DTD SVG 1.1//EN" "http://www.w3.org/Graphics/SVG/1.1/DTD/svg11.dtd">
<svg version="1.1" id="Layer_1" xmlns="http://www.w3.org/2000/svg" xmlns:xlink="http://www.w3.org/1999/xlink" x="0px" y="0px"
	 viewBox="0 0 16 16" style="enable-background:new 0 0 16 16;" xml:space="preserve">
<style type="text/css">
	.st0{fill-rule:evenodd;clip-rule:evenodd;}
</style>
<g id="setting_-_setting_equalizer">
	<g>
		<path class="st0" d="M13,12H5v-1H4v1H3c-0.3,0-0.5,0.2-0.5,0.5C2.5,12.8,2.7,13,3,13h1v1h1v-1h8c0.3,0,0.5-0.2,0.5-0.5
			C13.5,12.2,13.3,12,13,12z M13,8h-1V7h-1v1H3C2.7,8,2.5,8.2,2.5,8.5C2.5,8.8,2.7,9,3,9h8v1h1V9h1c0.3,0,0.5-0.2,0.5-0.5
			C13.5,8.2,13.3,8,13,8z M14.5,0h-13C0.7,0,0,0.7,0,1.5v13C0,15.3,0.7,16,1.5,16h13c0.8,0,1.5-0.7,1.5-1.5v-13
			C16,0.7,15.3,0,14.5,0z M15,14.5c0,0.3-0.2,0.5-0.5,0.5h-13C1.2,15,1,14.8,1,14.5v-13C1,1.2,1.2,1,1.5,1h13C14.8,1,15,1.2,15,1.5
			V14.5z M13,4H8V3H7v1H3C2.7,4,2.5,4.2,2.5,4.5C2.5,4.8,2.7,5,3,5h4v1h1V5h5c0.3,0,0.5-0.2,0.5-0.5C13.5,4.2,13.3,4,13,4z"/>
	</g>
</g>
</svg>
