<?xml version="1.0" encoding="utf-8"?>
<!-- Generator: Adobe Illustrator 21.0.2, SVG Export Plug-In . SVG Version: 6.00 Build 0)  -->
<!DOCTYPE svg PUBLIC "-//W3C//DTD SVG 1.1//EN" "http://www.w3.org/Graphics/SVG/1.1/DTD/svg11.dtd">
<svg version="1.1" id="Layer_1" xmlns="http://www.w3.org/2000/svg" xmlns:xlink="http://www.w3.org/1999/xlink" x="0px" y="0px"
	 viewBox="0 0 16 16" style="enable-background:new 0 0 16 16;" xml:space="preserve">
<style type="text/css">
	.st0{fill-rule:evenodd;clip-rule:evenodd;}
</style>
<g id="media_-_image_photo">
	<g>
		<path class="st0" d="M4,2C2.9,2,2,2.9,2,4c0,1.1,0.9,2,2,2s2-0.9,2-2C6,2.9,5.1,2,4,2z M5,5H3V3h2V5z M15,0H1C0.4,0,0,0.4,0,1
			v11.4c0,0,0,0.1,0,0.1V15c0,0.6,0.4,1,1,1h14c0.6,0,1-0.4,1-1V1C16,0.4,15.6,0,15,0z M1.5,15C1.2,15,1,14.8,1,14.5v-1.7l4.4-3.6
			l5,5.8H1.5z M15,14.5c0,0.3-0.2,0.5-0.5,0.5h-2.7l-3.7-4.3l4.4-3.6L15,9.9c0,0,0,0,0,0V14.5z M15,8.3l-2-2.2C12.8,6,12.7,6,12.5,6
			c-0.1,0-0.3,0-0.4,0.1L7.4,10L5.9,8.2C5.8,8,5.6,8,5.5,8C5.3,8,5.1,8,5,8.1l-4,3.3V1.5C1,1.2,1.2,1,1.5,1h13C14.8,1,15,1.2,15,1.5
			V8.3z"/>
	</g>
</g>
</svg>
