<?xml version="1.0" encoding="utf-8"?>
<!-- Generator: Adobe Illustrator 21.0.2, SVG Export Plug-In . SVG Version: 6.00 Build 0)  -->
<!DOCTYPE svg PUBLIC "-//W3C//DTD SVG 1.1//EN" "http://www.w3.org/Graphics/SVG/1.1/DTD/svg11.dtd">
<svg version="1.1" id="Layer_1" xmlns="http://www.w3.org/2000/svg" xmlns:xlink="http://www.w3.org/1999/xlink" x="0px" y="0px"
	 viewBox="0 0 16 16" style="enable-background:new 0 0 16 16;" xml:space="preserve">
<style type="text/css">
	.st0{fill-rule:evenodd;clip-rule:evenodd;}
</style>
<g id="document_-_paper_article_news_1_">
	<g>
		<path class="st0" d="M2,2.5c-0.6,0-1,0.4-1,1v11c0,0.6,0.4,1,1,1h11c0.6,0,1-0.4,1-1H2V2.5z M5.5,4.5h4C9.8,4.5,10,4.3,10,4
			c0-0.3-0.2-0.5-0.5-0.5h-4C5.2,3.5,5,3.7,5,4C5,4.3,5.2,4.5,5.5,4.5z M12.5,6.5h-7C5.2,6.5,5,6.7,5,7c0,0.3,0.2,0.5,0.5,0.5h7
			C12.8,7.5,13,7.3,13,7C13,6.7,12.8,6.5,12.5,6.5z M14,0.5H4c-0.6,0-1,0.4-1,1v11c0,0.6,0.4,1,1,1h10c0.6,0,1-0.4,1-1v-11
			C15,0.9,14.6,0.5,14,0.5z M14,12c0,0.3-0.2,0.5-0.5,0.5h-9C4.2,12.5,4,12.3,4,12V2c0-0.3,0.2-0.5,0.5-0.5h9C13.8,1.5,14,1.7,14,2
			V12z M12.5,9.5h-7C5.2,9.5,5,9.7,5,10c0,0.3,0.2,0.5,0.5,0.5h7c0.3,0,0.5-0.2,0.5-0.5C13,9.7,12.8,9.5,12.5,9.5z"/>
	</g>
</g>
</svg>
