<?xml version="1.0" encoding="utf-8"?>
<!-- Generator: Adobe Illustrator 21.0.2, SVG Export Plug-In . SVG Version: 6.00 Build 0)  -->
<!DOCTYPE svg PUBLIC "-//W3C//DTD SVG 1.1//EN" "http://www.w3.org/Graphics/SVG/1.1/DTD/svg11.dtd">
<svg version="1.1" id="Layer_1" xmlns="http://www.w3.org/2000/svg" xmlns:xlink="http://www.w3.org/1999/xlink" x="0px" y="0px"
	 viewBox="0 0 16 16" style="enable-background:new 0 0 16 16;" xml:space="preserve">
<g id="user_-_password_lock">
	<g>
		<path d="M12.5,6V4.5C12.5,2,10.5,0,8,0S3.5,2,3.5,4.5V6c-1.1,0-2,0.9-2,2v8h13V8C14.5,6.9,13.6,6,12.5,6z M4.5,4.5
			C4.5,2.6,6.1,1,8,1s3.5,1.6,3.5,3.5V6h-7V4.5z M13.5,14c0,0.6-0.4,1-1,1h-9c-0.6,0-1-0.4-1-1V8c0-0.6,0.4-1,1-1h9c0.6,0,1,0.4,1,1
			V14z M8,9C7.7,9,7.5,9.2,7.5,9.5v3C7.5,12.8,7.7,13,8,13s0.5-0.2,0.5-0.5v-3C8.5,9.2,8.3,9,8,9z"/>
	</g>
</g>
</svg>
