<?xml version="1.0" encoding="utf-8"?>
<!-- Generator: Adobe Illustrator 21.0.2, SVG Export Plug-In . SVG Version: 6.00 Build 0)  -->
<!DOCTYPE svg PUBLIC "-//W3C//DTD SVG 1.1//EN" "http://www.w3.org/Graphics/SVG/1.1/DTD/svg11.dtd">
<svg version="1.1" id="Layer_1" xmlns="http://www.w3.org/2000/svg" xmlns:xlink="http://www.w3.org/1999/xlink" x="0px" y="0px"
	 viewBox="0 0 16 16" style="enable-background:new 0 0 16 16;" xml:space="preserve">
<style type="text/css">
	.st0{fill-rule:evenodd;clip-rule:evenodd;}
</style>
<g id="music_-_interface_repeat_2_">
	<g>
		<path class="st0" d="M8,13.5c-2.5,0-4.6-1.7-5.3-4H4l-2-3l-2,3h1.7c0.7,2.9,3.2,5,6.3,5c2.3,0,4.3-1.2,5.5-3h-1.2
			C11.2,12.7,9.7,13.5,8,13.5z M14.3,6.5c-0.7-2.9-3.2-5-6.3-5c-2.3,0-4.3,1.2-5.5,3h1.2c1-1.2,2.5-2,4.2-2c2.5,0,4.6,1.7,5.3,4H12
			l2,3l2-3H14.3z"/>
	</g>
</g>
</svg>
